<svg width="54" height="54" viewBox="0 0 54 54" fill="none" xmlns="http://www.w3.org/2000/svg">
<rect width="54" height="54" rx="27" fill="white"/>
<path d="M25.752 34H10.008L17.88 16.936L25.752 34ZM11.4 33.112H24.36L17.88 19.048L11.4 33.112ZM42.5576 34H29.7176V17.296H36.2216C37.6136 17.296 38.7496 17.544 39.6296 18.04C40.4936 18.52 41.1656 19.176 41.6456 20.008C42.1256 20.84 42.3656 21.76 42.3656 22.768C42.3656 24.016 41.9816 25.136 41.2136 26.128C40.4456 27.104 39.4776 27.752 38.3096 28.072L42.5576 34ZM31.2296 18.184L37.7576 27.304C38.8296 27.08 39.7176 26.544 40.4216 25.696C41.1256 24.848 41.4776 23.872 41.4776 22.768C41.4776 21.888 41.2616 21.088 40.8296 20.368C40.3976 19.648 39.7896 19.096 39.0056 18.712C38.3016 18.36 37.3816 18.184 36.2456 18.184H31.2296ZM30.6056 18.76V27.376H36.7736L30.6056 18.76ZM30.6056 33.112H40.8776L37.3736 28.24L36.6296 28.264H30.6056V33.112Z" fill="black"/>
</svg>
